<svg width="24" height="24" viewBox="0 0 24 24" fill="none" xmlns="http://www.w3.org/2000/svg">
    <g clip-path="url(#clip0_51_19)">
        <path
            d="M12 22C17.5228 22 22 17.5228 22 12C22 6.47715 17.5228 2 12 2C6.47715 2 2 6.47715 2 12C2 17.5228 6.47715 22 12 22Z"
            fill="white" />
    </g>
    <path fill-rule="evenodd" clip-rule="evenodd"
        d="M12 24C18.6274 24 24 18.6274 24 12C24 5.37258 18.6274 0 12 0C5.37258 0 0 5.37258 0 12C0 18.6274 5.37258 24 12 24ZM12.9 8.4C12.9 7.90295 12.497 7.5 12 7.5C11.503 7.5 11.1 7.90295 11.1 8.4V11.1H8.4C7.90295 11.1 7.5 11.503 7.5 12C7.5 12.497 7.90295 12.9 8.4 12.9H11.1V15.6C11.1 16.097 11.503 16.5 12 16.5C12.497 16.5 12.9 16.097 12.9 15.6V12.9H15.6C16.097 12.9 16.5 12.497 16.5 12C16.5 11.503 16.097 11.1 15.6 11.1H12.9V8.4Z"
        fill="#333333" />
    <defs>
        <clipPath id="clip0_51_19">
            <rect width="20" height="20" fill="white" transform="translate(2 2)" />
        </clipPath>
    </defs>
</svg>